<svg width="50" height="50" viewBox="0 0 50 50" fill="none" xmlns="http://www.w3.org/2000/svg">
<path d="M45.2702 0.22522H4.72972C2.24098 0.22522 0.22522 2.24098 0.22522 4.72972V45.2702C0.22522 47.759 2.24098 49.7747 4.72972 49.7747H45.2702C47.759 49.7747 49.7747 47.759 49.7747 45.2702V4.72972C49.7747 2.24098 47.759 0.22522 45.2702 0.22522ZM25 37.1171C25 41.1193 22.545 43.3626 18.4685 43.3626C14.4414 43.3626 11.8761 41.009 11.8761 37.2027H16.2387C16.25 38.6148 17.0923 39.5067 18.3941 39.5067C19.732 39.5067 20.4504 38.6644 20.4504 37.0788V24.9955H25V37.1171ZM37.3446 43.3626C32.8198 43.3626 29.973 41.232 29.8964 37.786H34.2342C34.3446 39.0878 35.6441 39.9166 37.5293 39.9166C39.2275 39.9166 40.3941 39.0991 40.3941 37.9212C40.3941 36.9302 39.6126 36.3964 37.5675 35.9887L35.2139 35.518C31.9414 34.8986 30.2567 33.1148 30.2567 30.3018C30.2567 26.8063 33.0585 24.5135 37.3694 24.5135C41.5585 24.5135 44.4572 26.7815 44.5315 30.0901H40.3311C40.232 28.8266 39.0293 27.9459 37.4279 27.9459C35.8311 27.9459 34.7793 28.7027 34.7793 29.8919C34.7793 30.8716 35.5721 31.4414 37.4549 31.813L39.7567 32.259C43.2905 32.9414 44.8761 34.5383 44.8761 37.3761C44.8784 41.1081 42.0293 43.3626 37.3446 43.3626Z" fill="black"/>
</svg>
